<svg width="541" height="111" viewBox="0 0 541 111" fill="none" xmlns="http://www.w3.org/2000/svg">
<path d="M57.184 65H46.336V0.679998H72.64C86.176 0.679998 96.736 7.592 96.736 22.952C96.736 37.64 86.272 44.648 72.64 44.648H57.184V65ZM71.584 10.28H57.184V35.048H71.584C78.976 35.048 85.504 32.264 85.504 22.952C85.504 12.968 78.976 10.28 71.584 10.28ZM114.052 65.96C106.372 65.96 101.764 61.64 101.764 54.92C101.764 48.296 106.372 44.264 113.956 41.288L129.604 34.664C129.22 29.96 127.108 26.792 120.676 26.792C114.436 26.792 109.54 30.44 106.852 35.336L100.42 27.656C104.068 22.664 111.364 17.288 121.732 17.288C133.348 17.288 139.876 23.912 139.876 35.432V53C139.876 55.112 140.644 55.784 142.372 55.784H145.348V65H138.724C133.732 65 129.796 62.696 129.796 55.976V52.52C128.356 58.664 123.844 65.96 114.052 65.96ZM112.132 53.288C112.132 55.976 113.956 57.608 117.892 57.608C124.996 57.608 129.796 53.384 129.796 47.048V42.056L117.796 47.432C113.764 49.256 112.132 50.888 112.132 53.288ZM164.322 65H153.57V18.248H164.322V31.496C166.05 24.008 170.754 17.288 179.106 17.288C184.962 17.288 189.282 21.128 189.282 28.04C189.282 32.552 188.034 35.912 187.17 37.352H176.13C177.666 35.816 179.106 32.744 179.106 30.056C179.106 27.464 177.858 25.352 174.69 25.352C169.314 25.352 164.322 31.496 164.322 39.272V65ZM206.979 65H196.227V0.679998H206.979V65ZM229.104 11.624H218.352V0.679998H229.104V11.624ZM229.104 65H218.352V18.248H229.104V65ZM251.229 65H240.477V18.248H251.229V31.016C252.957 23.624 257.565 17.288 266.397 17.288C274.941 17.288 279.549 22.28 280.029 31.112C281.661 23.72 286.269 17.288 295.197 17.288C304.125 17.288 308.829 22.76 308.829 32.456V65H298.077V35.72C298.077 29.288 295.389 26.024 289.052 26.024C282.717 26.024 280.029 31.112 280.029 38.792V65H269.277V35.72C269.277 29.288 266.589 26.024 260.253 26.024C253.917 26.024 251.229 31.112 251.229 38.792V65ZM329.865 65.96C322.185 65.96 317.577 61.64 317.577 54.92C317.577 48.296 322.185 44.264 329.769 41.288L345.417 34.664C345.033 29.96 342.921 26.792 336.489 26.792C330.249 26.792 325.353 30.44 322.665 35.336L316.233 27.656C319.881 22.664 327.177 17.288 337.545 17.288C349.161 17.288 355.689 23.912 355.689 35.432V53C355.689 55.112 356.457 55.784 358.185 55.784H361.161V65H354.537C349.545 65 345.609 62.696 345.609 55.976V52.52C344.169 58.664 339.656 65.96 329.865 65.96ZM327.945 53.288C327.945 55.976 329.769 57.608 333.705 57.608C340.809 57.608 345.609 53.384 345.609 47.048V42.056L333.609 47.432C329.577 49.256 327.945 50.888 327.945 53.288ZM385.06 66.056C376.228 66.056 371.14 60.488 371.14 52.232V26.6H363.844V18.248H371.14V12.584L381.892 5.768V18.248H396.196V26.6H381.892V49.64C381.892 54.728 384.292 55.976 387.46 55.976C391.108 55.976 393.796 53 395.14 50.312L398.5 59.912C396.484 62.888 391.876 66.056 385.06 66.056ZM423.4 65.96C409.48 65.96 400.36 56.264 400.36 41.672C400.36 26.984 409.48 17.288 422.632 17.288C436.648 17.288 444.424 26.6 444.424 39.56C444.424 41.288 444.232 43.304 444.04 44.264H410.632C411.208 52.616 416.104 57.128 423.496 57.128C431.656 57.128 435.304 52.904 437.032 48.968L443.656 55.88C440.104 61.256 433.768 65.96 423.4 65.96ZM422.632 25.928C416.008 25.928 411.592 29.768 410.728 37.352H434.728C433.96 29.96 429.736 25.928 422.632 25.928Z" fill="black"/>
<path d="M470.424 52.1049C479.136 47.218 485.822 42.9221 490.759 39.1286C495.571 35.4317 499.244 31.824 501.302 28.1826C502.368 26.2965 503.184 24.0823 503.232 21.6377C503.283 19.0665 502.47 16.7163 501.031 14.783C498.438 11.3018 494.286 9.75727 491.112 8.95355C484.373 7.24678 475.206 7.27289 467.216 7.89192C459.142 8.51742 451.125 9.84567 446.412 11.3187C442.722 12.4718 440.665 16.3979 441.818 20.0879C442.971 23.778 446.897 25.8345 450.587 24.6814C453.874 23.6544 460.717 22.4374 468.297 21.8501C475.963 21.2562 483.242 21.4022 487.675 22.525C487.841 22.5671 487.997 22.609 488.142 22.6504C487.086 23.9162 485.255 25.7027 482.23 28.0268C478.017 31.2632 471.959 35.1914 463.575 39.8949C443.97 50.8928 414.588 60.4155 379.638 68.2753C344.816 76.1064 304.959 82.1812 264.72 86.4859C184.106 95.1099 102.709 96.5533 57.8517 91.0521C45.0477 89.4818 35.2485 86.8363 28.3507 83.658C21.31 80.4139 18.1433 77.0237 17.0586 74.4926C16.1886 72.4625 16.154 69.8042 18.9344 65.9657C21.8842 61.8932 27.6769 57.1062 37.1925 52.2295C40.6329 50.4662 41.9926 46.2478 40.2294 42.8073C38.4661 39.3668 34.2477 38.0072 30.8072 39.7704C20.3226 45.1437 12.3652 51.1692 7.59633 57.753C2.66711 64.558 0.930535 72.4005 4.1905 80.0073C7.23144 87.1031 14.0042 92.4623 22.492 96.3732C31.1253 100.351 42.4512 103.268 56.1475 104.948C102.531 110.636 185.133 109.08 266.209 100.406C306.816 96.0624 347.226 89.9141 382.71 81.9342C418.066 73.9831 449.029 64.107 470.424 52.1049Z" fill="url(#paint0_linear_673_777)" stroke="white" stroke-width="5" stroke-linecap="round"/>
<path fill-rule="evenodd" clip-rule="evenodd" d="M532.914 31.0857C532.86 31.0505 532.806 31.0148 532.753 30.9787C532.806 31.0153 532.859 31.0523 532.911 31.0897L532.914 31.0857ZM529.284 13.0031C525.294 18.8818 526.798 26.8772 532.645 30.9054C527.267 27.2778 520.131 28.2346 515.877 32.8977C518.673 27.2151 516.935 20.1951 511.551 16.5245C511.551 16.5245 511.551 16.5244 511.551 16.5244L511.553 16.5225C517.422 20.3577 525.306 18.8113 529.284 13.0031ZM529.316 12.9558C529.359 12.8925 529.403 12.8297 529.447 12.7675L529.443 12.7646C529.401 12.8286 529.359 12.8924 529.316 12.9558Z" fill="#C285FF"/>
<path fill-rule="evenodd" clip-rule="evenodd" d="M499.316 79.7291C499.186 79.7243 499.056 79.7184 498.925 79.7114C499.056 79.7193 499.186 79.7281 499.315 79.7381L499.316 79.7291ZM476.596 54.8383C475.889 67.8129 485.795 78.9221 498.762 79.7022C486.91 79.0694 476.619 87.2941 474.348 98.6134C473.371 87.0833 464.037 77.73 452.15 77.055C452.149 77.055 452.149 77.0549 452.149 77.0549L452.149 77.0504C464.952 77.5256 475.838 67.6789 476.596 54.8383ZM476.602 54.7302C476.611 54.5907 476.62 54.4515 476.631 54.3127L476.622 54.3122C476.616 54.4513 476.61 54.5906 476.602 54.7302Z" fill="#902BF5"/>
<path fill-rule="evenodd" clip-rule="evenodd" d="M506.192 38.2075L506.185 38.2093C506.214 38.3158 506.242 38.4228 506.269 38.5303C508.462 47.3107 503.027 56.2515 494.099 58.6635L494.1 58.6664C494.1 58.6664 494.1 58.6664 494.1 58.6664C502.428 56.5864 510.816 60.8694 513.903 68.3922C513.093 60.3262 518.446 52.6248 526.73 50.5164C517.633 52.7457 508.483 47.3931 506.269 38.5303C506.242 38.4227 506.217 38.3151 506.192 38.2075ZM526.885 50.4777C526.969 50.4563 527.053 50.4343 527.136 50.4117L527.138 50.4177C527.053 50.4371 526.969 50.4571 526.885 50.4777Z" fill="#AD5EFB"/>
<defs>
<linearGradient id="paint0_linear_673_777" x1="5.02832" y1="57.9057" x2="500.734" y2="57.9057" gradientUnits="userSpaceOnUse">
<stop offset="0.554496"/>
<stop offset="1" stop-color="#BD7EFD"/>
</linearGradient>
</defs>
</svg>
